<mxfile host="Electron" agent="Mozilla/5.0 (Windows NT 10.0; Win64; x64) AppleWebKit/537.36 (KHTML, like Gecko) draw.io/27.0.5 Chrome/134.0.6998.205 Electron/35.3.0 Safari/537.36" version="27.0.5" pages="2">
  <diagram name="Page-1" id="52a04d89-c75d-2922-d76d-85b35f80e030">
    <mxGraphModel dx="1223" dy="744" grid="1" gridSize="10" guides="1" tooltips="1" connect="1" arrows="1" fold="1" page="1" pageScale="1" pageWidth="1100" pageHeight="850" background="none" math="0" shadow="0">
      <root>
        <mxCell id="0" />
        <mxCell id="1" parent="0" />
        <mxCell id="kc7mL7fN0hqaPipzQ88B-12" style="edgeStyle=elbowEdgeStyle;shape=connector;rounded=1;orthogonalLoop=1;jettySize=auto;html=1;strokeColor=default;align=center;verticalAlign=middle;fontFamily=Helvetica;fontSize=11;fontColor=default;labelBackgroundColor=default;endArrow=classic;" edge="1" parent="1" source="21ea969265ad0168-30" target="1fdf3b25b50cf41e-10">
          <mxGeometry relative="1" as="geometry">
            <Array as="points">
              <mxPoint x="650" y="320" />
            </Array>
          </mxGeometry>
        </mxCell>
        <mxCell id="21ea969265ad0168-30" value="&lt;strong&gt;&lt;span style=&quot;font-size:11.0pt;line-height:&lt;br/&gt;107%;font-family:&amp;quot;Calibri&amp;quot;,sans-serif;mso-ascii-theme-font:minor-latin;&lt;br/&gt;mso-fareast-font-family:Calibri;mso-fareast-theme-font:minor-latin;mso-hansi-theme-font:&lt;br/&gt;minor-latin;mso-bidi-font-family:Arial;mso-bidi-theme-font:minor-bidi;&lt;br/&gt;mso-ansi-language:EN-US;mso-fareast-language:EN-US;mso-bidi-language:AR-SA&quot;&gt;D1:&lt;br/&gt;User Data&lt;/span&gt;&lt;/strong&gt;" style="html=1;rounded=0;shadow=0;comic=0;labelBackgroundColor=none;strokeWidth=2;fontFamily=Verdana;fontSize=12;align=center;shape=mxgraph.ios7ui.horLines;" parent="1" vertex="1">
          <mxGeometry x="910" y="107" width="135" height="50" as="geometry" />
        </mxCell>
        <mxCell id="1fdf3b25b50cf41e-27" style="edgeStyle=elbowEdgeStyle;html=1;labelBackgroundColor=none;startFill=0;startSize=8;endFill=1;endSize=8;fontFamily=Verdana;fontSize=12;" parent="1" source="17472293e6e8944d-30" target="1fdf3b25b50cf41e-1" edge="1">
          <mxGeometry relative="1" as="geometry" />
        </mxCell>
        <mxCell id="kc7mL7fN0hqaPipzQ88B-8" style="edgeStyle=elbowEdgeStyle;rounded=1;orthogonalLoop=1;jettySize=auto;html=1;exitX=0.75;exitY=1;exitDx=0;exitDy=0;entryX=0;entryY=0.25;entryDx=0;entryDy=0;curved=0;" edge="1" parent="1" source="17472293e6e8944d-30" target="1fdf3b25b50cf41e-9">
          <mxGeometry relative="1" as="geometry">
            <Array as="points">
              <mxPoint x="160" y="130" />
            </Array>
          </mxGeometry>
        </mxCell>
        <mxCell id="kc7mL7fN0hqaPipzQ88B-26" style="edgeStyle=elbowEdgeStyle;shape=connector;rounded=1;orthogonalLoop=1;jettySize=auto;html=1;exitX=1;exitY=0.5;exitDx=0;exitDy=0;entryX=0;entryY=0;entryDx=0;entryDy=0;strokeColor=default;align=center;verticalAlign=middle;fontFamily=Helvetica;fontSize=11;fontColor=default;labelBackgroundColor=default;endArrow=classic;" edge="1" parent="1" source="17472293e6e8944d-30" target="1fdf3b25b50cf41e-7">
          <mxGeometry relative="1" as="geometry">
            <Array as="points">
              <mxPoint x="400" y="110" />
            </Array>
          </mxGeometry>
        </mxCell>
        <mxCell id="kc7mL7fN0hqaPipzQ88B-46" style="edgeStyle=elbowEdgeStyle;shape=connector;rounded=1;orthogonalLoop=1;jettySize=auto;html=1;strokeColor=default;align=center;verticalAlign=middle;fontFamily=Helvetica;fontSize=11;fontColor=default;labelBackgroundColor=default;endArrow=classic;" edge="1" parent="1" source="17472293e6e8944d-30" target="1fdf3b25b50cf41e-11">
          <mxGeometry relative="1" as="geometry" />
        </mxCell>
        <mxCell id="17472293e6e8944d-30" value="&lt;strong&gt;&lt;span style=&quot;font-size:11.0pt;line-height:&lt;br/&gt;107%;font-family:&amp;quot;Calibri&amp;quot;,sans-serif;mso-ascii-theme-font:minor-latin;&lt;br/&gt;mso-fareast-font-family:Calibri;mso-fareast-theme-font:minor-latin;mso-hansi-theme-font:&lt;br/&gt;minor-latin;mso-bidi-font-family:Arial;mso-bidi-theme-font:minor-bidi;&lt;br/&gt;mso-ansi-language:EN-US;mso-fareast-language:EN-US;mso-bidi-language:AR-SA&quot;&gt;User&lt;/span&gt;&lt;/strong&gt;" style="whiteSpace=wrap;html=1;rounded=0;shadow=0;comic=0;labelBackgroundColor=none;strokeWidth=1;fontFamily=Verdana;fontSize=12;align=center;" parent="1" vertex="1">
          <mxGeometry x="60" y="55" width="120" height="50" as="geometry" />
        </mxCell>
        <mxCell id="1fdf3b25b50cf41e-29" style="edgeStyle=elbowEdgeStyle;html=1;labelBackgroundColor=none;startFill=0;startSize=8;endFill=1;endSize=8;fontFamily=Verdana;fontSize=12;" parent="1" source="1fdf3b25b50cf41e-1" target="1fdf3b25b50cf41e-7" edge="1">
          <mxGeometry relative="1" as="geometry" />
        </mxCell>
        <mxCell id="1fdf3b25b50cf41e-38" style="edgeStyle=orthogonalEdgeStyle;html=1;labelBackgroundColor=none;startFill=0;startSize=8;endFill=1;endSize=8;fontFamily=Verdana;fontSize=12;" parent="1" source="1fdf3b25b50cf41e-1" target="21ea969265ad0168-30" edge="1">
          <mxGeometry relative="1" as="geometry">
            <Array as="points">
              <mxPoint x="540" y="132" />
            </Array>
          </mxGeometry>
        </mxCell>
        <mxCell id="kc7mL7fN0hqaPipzQ88B-6" style="edgeStyle=elbowEdgeStyle;rounded=1;orthogonalLoop=1;jettySize=auto;html=1;exitX=1;exitY=0.25;exitDx=0;exitDy=0;entryX=0.01;entryY=0.091;entryDx=0;entryDy=0;entryPerimeter=0;shadow=0;curved=0;" edge="1" parent="1" source="1fdf3b25b50cf41e-1" target="1fdf3b25b50cf41e-6">
          <mxGeometry relative="1" as="geometry">
            <mxPoint x="1040" y="75" as="targetPoint" />
            <Array as="points">
              <mxPoint x="880" y="75" />
            </Array>
          </mxGeometry>
        </mxCell>
        <mxCell id="1fdf3b25b50cf41e-1" value="P4.1" style="swimlane;html=1;fontStyle=0;childLayout=stackLayout;horizontal=1;startSize=26;fillColor=#e0e0e0;horizontalStack=0;resizeParent=1;resizeLast=0;collapsible=1;marginBottom=0;swimlaneFillColor=#ffffff;align=center;rounded=1;shadow=0;comic=0;labelBackgroundColor=none;strokeWidth=1;fontFamily=Verdana;fontSize=12" parent="1" vertex="1">
          <mxGeometry x="430" y="54" width="140" height="80" as="geometry" />
        </mxCell>
        <mxCell id="1fdf3b25b50cf41e-2" value="&lt;strong&gt;&lt;span style=&quot;font-size:11.0pt;line-height:&lt;br/&gt;107%;font-family:&amp;quot;Calibri&amp;quot;,sans-serif;mso-ascii-theme-font:minor-latin;&lt;br/&gt;mso-fareast-font-family:Calibri;mso-fareast-theme-font:minor-latin;mso-hansi-theme-font:&lt;br/&gt;minor-latin;mso-bidi-font-family:Arial;mso-bidi-theme-font:minor-bidi;&lt;br/&gt;mso-ansi-language:EN-US;mso-fareast-language:EN-US;mso-bidi-language:AR-SA&quot;&gt;P4.1:&lt;br/&gt;Contact Addition&lt;/span&gt;&lt;/strong&gt;" style="text;html=1;strokeColor=default;fillColor=none;spacingLeft=4;spacingRight=4;whiteSpace=wrap;overflow=hidden;rotatable=0;points=[[0,0.5],[1,0.5]];portConstraint=eastwest;align=center;" parent="1fdf3b25b50cf41e-1" vertex="1">
          <mxGeometry y="26" width="140" height="54" as="geometry" />
        </mxCell>
        <mxCell id="kc7mL7fN0hqaPipzQ88B-11" style="edgeStyle=elbowEdgeStyle;shape=connector;rounded=1;orthogonalLoop=1;jettySize=auto;html=1;entryX=0.468;entryY=1.069;entryDx=0;entryDy=0;strokeColor=default;align=center;verticalAlign=middle;fontFamily=Helvetica;fontSize=11;fontColor=default;labelBackgroundColor=default;endArrow=classic;entryPerimeter=0;exitX=0.02;exitY=0.434;exitDx=0;exitDy=0;exitPerimeter=0;" edge="1" parent="1">
          <mxGeometry relative="1" as="geometry">
            <mxPoint x="910.0000000000002" y="401.70000000000005" as="sourcePoint" />
            <mxPoint x="252.82" y="209.99599999999992" as="targetPoint" />
            <Array as="points">
              <mxPoint x="207.3" y="302.58" />
              <mxPoint x="767.3" y="471.58" />
              <mxPoint x="727.3" y="491.58" />
              <mxPoint x="97.3" y="421.58" />
            </Array>
          </mxGeometry>
        </mxCell>
        <mxCell id="kc7mL7fN0hqaPipzQ88B-31" style="edgeStyle=elbowEdgeStyle;shape=connector;rounded=1;orthogonalLoop=1;jettySize=auto;html=1;strokeColor=default;align=center;verticalAlign=middle;fontFamily=Helvetica;fontSize=11;fontColor=default;labelBackgroundColor=default;endArrow=classic;" edge="1" parent="1" source="1fdf3b25b50cf41e-6" target="1fdf3b25b50cf41e-8">
          <mxGeometry relative="1" as="geometry">
            <mxPoint x="520" y="530" as="targetPoint" />
            <Array as="points">
              <mxPoint x="480" y="500" />
            </Array>
          </mxGeometry>
        </mxCell>
        <mxCell id="1fdf3b25b50cf41e-6" value="&lt;strong&gt;&lt;span style=&quot;font-size:11.0pt;line-height:&lt;br/&gt;107%;font-family:&amp;quot;Calibri&amp;quot;,sans-serif;mso-ascii-theme-font:minor-latin;&lt;br/&gt;mso-fareast-font-family:Calibri;mso-fareast-theme-font:minor-latin;mso-hansi-theme-font:&lt;br/&gt;minor-latin;mso-bidi-font-family:Arial;mso-bidi-theme-font:minor-bidi;&lt;br/&gt;mso-ansi-language:EN-US;mso-fareast-language:EN-US;mso-bidi-language:AR-SA&quot;&gt;D5:&lt;br/&gt;Contact &amp;amp; Block Data:&lt;/span&gt;&lt;/strong&gt;&lt;span style=&quot;font-size:11.0pt;&lt;br/&gt;line-height:107%;font-family:&amp;quot;Calibri&amp;quot;,sans-serif;mso-ascii-theme-font:minor-latin;&lt;br/&gt;mso-fareast-font-family:Calibri;mso-fareast-theme-font:minor-latin;mso-hansi-theme-font:&lt;br/&gt;minor-latin;mso-bidi-font-family:Arial;mso-bidi-theme-font:minor-bidi;&lt;br/&gt;mso-ansi-language:EN-US;mso-fareast-language:EN-US;mso-bidi-language:AR-SA&quot;&gt;&lt;/span&gt;" style="html=1;rounded=0;shadow=0;comic=0;labelBackgroundColor=none;strokeWidth=2;fontFamily=Verdana;fontSize=12;align=center;shape=mxgraph.ios7ui.horLines;" parent="1" vertex="1">
          <mxGeometry x="910" y="380" width="135" height="50" as="geometry" />
        </mxCell>
        <mxCell id="1fdf3b25b50cf41e-7" value="&lt;strong style=&quot;font-family: Helvetica; text-wrap-mode: wrap;&quot;&gt;&lt;span style=&quot;font-size: 11pt; font-family: Calibri, sans-serif;&quot;&gt;P4.3:&lt;br&gt;&lt;/span&gt;&lt;/strong&gt;" style="swimlane;html=1;fontStyle=0;childLayout=stackLayout;horizontal=1;startSize=26;fillColor=#e0e0e0;horizontalStack=0;resizeParent=1;resizeLast=0;collapsible=1;marginBottom=0;swimlaneFillColor=#ffffff;align=center;rounded=1;shadow=0;comic=0;labelBackgroundColor=none;strokeWidth=1;fontFamily=Verdana;fontSize=12" parent="1" vertex="1">
          <mxGeometry x="430" y="154" width="130" height="90" as="geometry" />
        </mxCell>
        <mxCell id="1fdf3b25b50cf41e-8" value="&lt;strong&gt;&lt;span style=&quot;font-size:11.0pt;line-height:&lt;br/&gt;107%;font-family:&amp;quot;Calibri&amp;quot;,sans-serif;mso-ascii-theme-font:minor-latin;&lt;br/&gt;mso-fareast-font-family:Calibri;mso-fareast-theme-font:minor-latin;mso-hansi-theme-font:&lt;br/&gt;minor-latin;mso-bidi-font-family:Arial;mso-bidi-theme-font:minor-bidi;&lt;br/&gt;mso-ansi-language:EN-US;mso-fareast-language:EN-US;mso-bidi-language:AR-SA&quot;&gt;Contact Alias Management:&lt;/span&gt;&lt;/strong&gt;&lt;span style=&quot;font-size:11.0pt;&lt;br/&gt;line-height:107%;font-family:&amp;quot;Calibri&amp;quot;,sans-serif;mso-ascii-theme-font:minor-latin;&lt;br/&gt;mso-fareast-font-family:Calibri;mso-fareast-theme-font:minor-latin;mso-hansi-theme-font:&lt;br/&gt;minor-latin;mso-bidi-font-family:Arial;mso-bidi-theme-font:minor-bidi;&lt;br/&gt;mso-ansi-language:EN-US;mso-fareast-language:EN-US;mso-bidi-language:AR-SA&quot;&gt;&lt;/span&gt;" style="text;html=1;strokeColor=none;fillColor=none;spacingLeft=4;spacingRight=4;whiteSpace=wrap;overflow=hidden;rotatable=0;points=[[0,0.5],[1,0.5]];portConstraint=eastwest;align=center;" parent="1fdf3b25b50cf41e-7" vertex="1">
          <mxGeometry y="26" width="130" height="64" as="geometry" />
        </mxCell>
        <mxCell id="1fdf3b25b50cf41e-40" style="edgeStyle=elbowEdgeStyle;html=1;labelBackgroundColor=none;startFill=0;startSize=8;endFill=1;endSize=8;fontFamily=Verdana;fontSize=12;" parent="1" source="1fdf3b25b50cf41e-9" target="1fdf3b25b50cf41e-7" edge="1">
          <mxGeometry relative="1" as="geometry" />
        </mxCell>
        <mxCell id="1fdf3b25b50cf41e-9" value="&lt;strong style=&quot;font-family: Helvetica; text-wrap-mode: wrap;&quot;&gt;&lt;span style=&quot;font-size: 11pt; font-family: Calibri, sans-serif;&quot;&gt;P4.2:&lt;/span&gt;&lt;/strong&gt;" style="swimlane;html=1;fontStyle=0;childLayout=stackLayout;horizontal=1;startSize=26;fillColor=#e0e0e0;horizontalStack=0;resizeParent=1;resizeLast=0;collapsible=1;marginBottom=0;swimlaneFillColor=#ffffff;align=center;rounded=1;shadow=0;comic=0;labelBackgroundColor=none;strokeWidth=1;fontFamily=Verdana;fontSize=12" parent="1" vertex="1">
          <mxGeometry x="250" y="153" width="140" height="90" as="geometry" />
        </mxCell>
        <mxCell id="kc7mL7fN0hqaPipzQ88B-10" style="edgeStyle=elbowEdgeStyle;rounded=1;orthogonalLoop=1;jettySize=auto;html=1;" edge="1" parent="1fdf3b25b50cf41e-9" source="1fdf3b25b50cf41e-10">
          <mxGeometry relative="1" as="geometry">
            <mxPoint x="650" y="257" as="targetPoint" />
            <Array as="points">
              <mxPoint x="20" y="147" />
              <mxPoint x="400" y="267" />
              <mxPoint x="70" y="117" />
            </Array>
          </mxGeometry>
        </mxCell>
        <mxCell id="1fdf3b25b50cf41e-10" value="&lt;strong&gt;&lt;span style=&quot;font-size:11.0pt;line-height:&lt;br/&gt;107%;font-family:&amp;quot;Calibri&amp;quot;,sans-serif;mso-ascii-theme-font:minor-latin;&lt;br/&gt;mso-fareast-font-family:Calibri;mso-fareast-theme-font:minor-latin;mso-hansi-theme-font:&lt;br/&gt;minor-latin;mso-bidi-font-family:Arial;mso-bidi-theme-font:minor-bidi;&lt;br/&gt;mso-ansi-language:EN-US;mso-fareast-language:EN-US;mso-bidi-language:AR-SA&quot;&gt;&lt;br&gt;Contact Viewing:&lt;/span&gt;&lt;/strong&gt;&lt;span style=&quot;font-size:11.0pt;line-height:107%;&lt;br/&gt;font-family:&amp;quot;Calibri&amp;quot;,sans-serif;mso-ascii-theme-font:minor-latin;mso-fareast-font-family:&lt;br/&gt;Calibri;mso-fareast-theme-font:minor-latin;mso-hansi-theme-font:minor-latin;&lt;br/&gt;mso-bidi-font-family:Arial;mso-bidi-theme-font:minor-bidi;mso-ansi-language:&lt;br/&gt;EN-US;mso-fareast-language:EN-US;mso-bidi-language:AR-SA&quot;&gt;&lt;/span&gt;" style="text;html=1;strokeColor=none;fillColor=none;spacingLeft=4;spacingRight=4;whiteSpace=wrap;overflow=hidden;rotatable=0;points=[[0,0.5],[1,0.5]];portConstraint=eastwest;align=center;" parent="1fdf3b25b50cf41e-9" vertex="1">
          <mxGeometry y="26" width="140" height="64" as="geometry" />
        </mxCell>
        <mxCell id="1fdf3b25b50cf41e-31" style="edgeStyle=orthogonalEdgeStyle;html=1;labelBackgroundColor=none;startFill=0;startSize=8;endFill=1;endSize=8;fontFamily=Verdana;fontSize=12;" parent="1" source="1fdf3b25b50cf41e-11" edge="1">
          <mxGeometry relative="1" as="geometry">
            <Array as="points">
              <mxPoint x="810" y="230" />
            </Array>
          </mxGeometry>
        </mxCell>
        <mxCell id="kc7mL7fN0hqaPipzQ88B-36" style="edgeStyle=elbowEdgeStyle;shape=connector;rounded=1;orthogonalLoop=1;jettySize=auto;html=1;strokeColor=default;align=center;verticalAlign=middle;fontFamily=Helvetica;fontSize=11;fontColor=default;labelBackgroundColor=default;endArrow=classic;" edge="1" parent="1" source="1fdf3b25b50cf41e-11">
          <mxGeometry relative="1" as="geometry">
            <mxPoint x="70" y="110" as="targetPoint" />
          </mxGeometry>
        </mxCell>
        <mxCell id="kc7mL7fN0hqaPipzQ88B-41" style="edgeStyle=elbowEdgeStyle;shape=connector;rounded=1;orthogonalLoop=1;jettySize=auto;html=1;strokeColor=default;align=center;verticalAlign=middle;fontFamily=Helvetica;fontSize=11;fontColor=default;labelBackgroundColor=default;endArrow=classic;entryX=0.983;entryY=0.351;entryDx=0;entryDy=0;entryPerimeter=0;" edge="1" parent="1">
          <mxGeometry relative="1" as="geometry">
            <mxPoint x="1032.705" y="144.54999999999995" as="targetPoint" />
            <mxPoint x="200" y="520" as="sourcePoint" />
            <Array as="points">
              <mxPoint x="1050" y="570" />
            </Array>
          </mxGeometry>
        </mxCell>
        <mxCell id="1fdf3b25b50cf41e-11" value="&lt;strong style=&quot;font-family: Helvetica; text-wrap-mode: wrap;&quot;&gt;&lt;span style=&quot;font-size: 11pt; line-height: 15.6933px; font-family: Calibri, sans-serif;&quot;&gt;P4.4:&lt;/span&gt;&lt;/strong&gt;" style="swimlane;html=1;fontStyle=0;childLayout=stackLayout;horizontal=1;startSize=26;fillColor=#e0e0e0;horizontalStack=0;resizeParent=1;resizeLast=0;collapsible=1;marginBottom=0;swimlaneFillColor=#ffffff;align=center;rounded=1;shadow=0;comic=0;labelBackgroundColor=none;strokeWidth=1;fontFamily=Verdana;fontSize=12" parent="1" vertex="1">
          <mxGeometry x="70" y="474" width="140" height="52" as="geometry" />
        </mxCell>
        <mxCell id="1fdf3b25b50cf41e-12" value="&lt;strong&gt;&lt;span style=&quot;font-size:11.0pt;line-height:&lt;br/&gt;107%;font-family:&amp;quot;Calibri&amp;quot;,sans-serif;mso-ascii-theme-font:minor-latin;&lt;br/&gt;mso-fareast-font-family:Calibri;mso-fareast-theme-font:minor-latin;mso-hansi-theme-font:&lt;br/&gt;minor-latin;mso-bidi-font-family:Arial;mso-bidi-theme-font:minor-bidi;&lt;br/&gt;mso-ansi-language:EN-US;mso-fareast-language:EN-US;mso-bidi-language:AR-SA&quot;&gt;&amp;nbsp;User Blocking:&lt;/span&gt;&lt;/strong&gt;&lt;span style=&quot;font-size:11.0pt;line-height:107%;&lt;br/&gt;font-family:&amp;quot;Calibri&amp;quot;,sans-serif;mso-ascii-theme-font:minor-latin;mso-fareast-font-family:&lt;br/&gt;Calibri;mso-fareast-theme-font:minor-latin;mso-hansi-theme-font:minor-latin;&lt;br/&gt;mso-bidi-font-family:Arial;mso-bidi-theme-font:minor-bidi;mso-ansi-language:&lt;br/&gt;EN-US;mso-fareast-language:EN-US;mso-bidi-language:AR-SA&quot;&gt;&lt;/span&gt;" style="text;html=1;strokeColor=none;fillColor=none;spacingLeft=4;spacingRight=4;whiteSpace=wrap;overflow=hidden;rotatable=0;points=[[0,0.5],[1,0.5]];portConstraint=eastwest;align=center;" parent="1fdf3b25b50cf41e-11" vertex="1">
          <mxGeometry y="26" width="140" height="26" as="geometry" />
        </mxCell>
        <mxCell id="kc7mL7fN0hqaPipzQ88B-5" style="edgeStyle=elbowEdgeStyle;rounded=1;orthogonalLoop=1;jettySize=auto;html=1;entryX=1.009;entryY=0.772;entryDx=0;entryDy=0;entryPerimeter=0;curved=0;" edge="1" parent="1" source="21ea969265ad0168-30" target="1fdf3b25b50cf41e-2">
          <mxGeometry relative="1" as="geometry">
            <Array as="points">
              <mxPoint x="700" y="140" />
            </Array>
          </mxGeometry>
        </mxCell>
        <mxCell id="kc7mL7fN0hqaPipzQ88B-7" style="edgeStyle=elbowEdgeStyle;rounded=0;orthogonalLoop=1;jettySize=auto;html=1;entryX=1;entryY=1;entryDx=0;entryDy=0;" edge="1" parent="1" source="1fdf3b25b50cf41e-2" target="17472293e6e8944d-30">
          <mxGeometry relative="1" as="geometry" />
        </mxCell>
        <mxCell id="kc7mL7fN0hqaPipzQ88B-9" style="edgeStyle=elbowEdgeStyle;rounded=1;orthogonalLoop=1;jettySize=auto;html=1;elbow=vertical;entryX=0.507;entryY=1.009;entryDx=0;entryDy=0;entryPerimeter=0;" edge="1" parent="1" target="21ea969265ad0168-30">
          <mxGeometry relative="1" as="geometry">
            <mxPoint x="350" y="229.9999999999999" as="sourcePoint" />
            <mxPoint x="990" y="290" as="targetPoint" />
            <Array as="points">
              <mxPoint x="700" y="270" />
            </Array>
          </mxGeometry>
        </mxCell>
        <mxCell id="kc7mL7fN0hqaPipzQ88B-13" style="edgeStyle=elbowEdgeStyle;shape=connector;rounded=1;orthogonalLoop=1;jettySize=auto;html=1;entryX=0.392;entryY=1.106;entryDx=0;entryDy=0;entryPerimeter=0;strokeColor=default;align=center;verticalAlign=middle;fontFamily=Helvetica;fontSize=11;fontColor=default;labelBackgroundColor=default;endArrow=classic;" edge="1" parent="1" source="1fdf3b25b50cf41e-10" target="17472293e6e8944d-30">
          <mxGeometry relative="1" as="geometry">
            <Array as="points">
              <mxPoint x="107" y="140" />
            </Array>
          </mxGeometry>
        </mxCell>
        <mxCell id="kc7mL7fN0hqaPipzQ88B-14" value="Contact List Data" style="text;whiteSpace=wrap;html=1;fontFamily=Helvetica;fontSize=11;fontColor=default;labelBackgroundColor=default;" vertex="1" parent="1">
          <mxGeometry x="120" y="190" width="120" height="40" as="geometry" />
        </mxCell>
        <mxCell id="kc7mL7fN0hqaPipzQ88B-15" value="Contact Profile Details" style="text;whiteSpace=wrap;html=1;fontFamily=Helvetica;fontSize=11;fontColor=default;labelBackgroundColor=default;" vertex="1" parent="1">
          <mxGeometry x="420" y="300" width="140" height="40" as="geometry" />
        </mxCell>
        <mxCell id="kc7mL7fN0hqaPipzQ88B-16" value="Read Contact Profiles" style="text;whiteSpace=wrap;html=1;fontFamily=Helvetica;fontSize=11;fontColor=default;labelBackgroundColor=default;" vertex="1" parent="1">
          <mxGeometry x="500" y="270" width="140" height="40" as="geometry" />
        </mxCell>
        <mxCell id="kc7mL7fN0hqaPipzQ88B-17" value="Contact IDs List &amp; Aliases" style="text;whiteSpace=wrap;html=1;fontFamily=Helvetica;fontSize=11;fontColor=default;labelBackgroundColor=default;" vertex="1" parent="1">
          <mxGeometry x="430" y="380" width="160" height="40" as="geometry" />
        </mxCell>
        <mxCell id="kc7mL7fN0hqaPipzQ88B-18" value="Read User Contacts" style="text;whiteSpace=wrap;html=1;fontFamily=Helvetica;fontSize=11;fontColor=default;labelBackgroundColor=default;" vertex="1" parent="1">
          <mxGeometry x="300" y="410" width="130" height="40" as="geometry" />
        </mxCell>
        <mxCell id="kc7mL7fN0hqaPipzQ88B-19" value="View Contacts Request" style="text;whiteSpace=wrap;html=1;fontFamily=Helvetica;fontSize=11;fontColor=default;labelBackgroundColor=default;" vertex="1" parent="1">
          <mxGeometry x="150" y="134" width="150" height="40" as="geometry" />
        </mxCell>
        <mxCell id="kc7mL7fN0hqaPipzQ88B-20" value="Add Contact Confirmation" style="text;whiteSpace=wrap;html=1;fontFamily=Helvetica;fontSize=11;fontColor=default;labelBackgroundColor=default;" vertex="1" parent="1">
          <mxGeometry x="200" y="107" width="160" height="40" as="geometry" />
        </mxCell>
        <mxCell id="kc7mL7fN0hqaPipzQ88B-21" value="New Contact Record" style="text;whiteSpace=wrap;html=1;fontFamily=Helvetica;fontSize=11;fontColor=default;labelBackgroundColor=default;" vertex="1" parent="1">
          <mxGeometry x="640" y="50" width="140" height="20" as="geometry" />
        </mxCell>
        <mxCell id="kc7mL7fN0hqaPipzQ88B-22" value="Target User Profile" style="text;whiteSpace=wrap;html=1;fontFamily=Helvetica;fontSize=11;fontColor=default;labelBackgroundColor=default;" vertex="1" parent="1">
          <mxGeometry x="720" y="134" width="120" height="40" as="geometry" />
        </mxCell>
        <mxCell id="kc7mL7fN0hqaPipzQ88B-23" value="Read Target User Info" style="text;whiteSpace=wrap;html=1;fontFamily=Helvetica;fontSize=11;fontColor=default;labelBackgroundColor=default;" vertex="1" parent="1">
          <mxGeometry x="610" y="90" width="140" height="40" as="geometry" />
        </mxCell>
        <mxCell id="kc7mL7fN0hqaPipzQ88B-24" value="Add Contact Request" style="text;whiteSpace=wrap;html=1;fontFamily=Helvetica;fontSize=11;fontColor=default;labelBackgroundColor=default;" vertex="1" parent="1">
          <mxGeometry x="240" y="54" width="140" height="40" as="geometry" />
        </mxCell>
        <mxCell id="kc7mL7fN0hqaPipzQ88B-27" value="Assign Alias Request" style="text;whiteSpace=wrap;html=1;fontFamily=Helvetica;fontSize=11;fontColor=default;labelBackgroundColor=default;" vertex="1" parent="1">
          <mxGeometry x="340" y="130" width="140" height="40" as="geometry" />
        </mxCell>
        <mxCell id="kc7mL7fN0hqaPipzQ88B-28" style="edgeStyle=elbowEdgeStyle;shape=connector;rounded=1;orthogonalLoop=1;jettySize=auto;html=1;entryX=0.01;entryY=0.263;entryDx=0;entryDy=0;entryPerimeter=0;strokeColor=default;align=center;verticalAlign=middle;fontFamily=Helvetica;fontSize=11;fontColor=default;labelBackgroundColor=default;endArrow=classic;" edge="1" parent="1" source="1fdf3b25b50cf41e-8" target="1fdf3b25b50cf41e-6">
          <mxGeometry relative="1" as="geometry">
            <Array as="points">
              <mxPoint x="570" y="290" />
            </Array>
          </mxGeometry>
        </mxCell>
        <mxCell id="kc7mL7fN0hqaPipzQ88B-29" value=": Update Contact Alias" style="text;whiteSpace=wrap;html=1;fontFamily=Helvetica;fontSize=11;fontColor=default;labelBackgroundColor=default;" vertex="1" parent="1">
          <mxGeometry x="640" y="370" width="140" height="40" as="geometry" />
        </mxCell>
        <mxCell id="kc7mL7fN0hqaPipzQ88B-32" value="Contact Record" style="text;whiteSpace=wrap;html=1;fontFamily=Helvetica;fontSize=11;fontColor=default;labelBackgroundColor=default;" vertex="1" parent="1">
          <mxGeometry x="730" y="480" width="110" height="40" as="geometry" />
        </mxCell>
        <mxCell id="kc7mL7fN0hqaPipzQ88B-35" style="edgeStyle=elbowEdgeStyle;shape=connector;rounded=1;orthogonalLoop=1;jettySize=auto;html=1;entryX=1;entryY=0;entryDx=0;entryDy=0;strokeColor=default;align=center;verticalAlign=middle;fontFamily=Helvetica;fontSize=11;fontColor=default;labelBackgroundColor=default;endArrow=classic;elbow=vertical;" edge="1" parent="1" source="1fdf3b25b50cf41e-8" target="17472293e6e8944d-30">
          <mxGeometry relative="1" as="geometry">
            <Array as="points">
              <mxPoint x="260" y="140" />
            </Array>
          </mxGeometry>
        </mxCell>
        <mxCell id="kc7mL7fN0hqaPipzQ88B-42" value="Read Blocked User Profile" style="text;whiteSpace=wrap;html=1;fontFamily=Helvetica;fontSize=11;fontColor=default;labelBackgroundColor=default;" vertex="1" parent="1">
          <mxGeometry x="680" y="520" width="160" height="40" as="geometry" />
        </mxCell>
        <mxCell id="kc7mL7fN0hqaPipzQ88B-43" style="edgeStyle=elbowEdgeStyle;shape=connector;rounded=1;orthogonalLoop=1;jettySize=auto;html=1;entryX=-0.001;entryY=0.92;entryDx=0;entryDy=0;entryPerimeter=0;strokeColor=default;align=center;verticalAlign=middle;fontFamily=Helvetica;fontSize=11;fontColor=default;labelBackgroundColor=default;endArrow=classic;" edge="1" parent="1" source="1fdf3b25b50cf41e-12" target="1fdf3b25b50cf41e-6">
          <mxGeometry relative="1" as="geometry" />
        </mxCell>
        <mxCell id="kc7mL7fN0hqaPipzQ88B-44" value=": New Block Record" style="text;whiteSpace=wrap;html=1;fontFamily=Helvetica;fontSize=11;fontColor=default;labelBackgroundColor=default;" vertex="1" parent="1">
          <mxGeometry x="630" y="425" width="130" height="40" as="geometry" />
        </mxCell>
        <mxCell id="kc7mL7fN0hqaPipzQ88B-47" value="Block Confirmation" style="text;whiteSpace=wrap;html=1;fontFamily=Helvetica;fontSize=11;fontColor=default;labelBackgroundColor=default;rotation=-90;" vertex="1" parent="1">
          <mxGeometry x="30" y="320" width="130" height="40" as="geometry" />
        </mxCell>
        <mxCell id="kc7mL7fN0hqaPipzQ88B-48" value="Block User Request" style="text;whiteSpace=wrap;html=1;fontFamily=Helvetica;fontSize=11;fontColor=default;labelBackgroundColor=default;rotation=-90;" vertex="1" parent="1">
          <mxGeometry x="75" y="340" width="130" height="40" as="geometry" />
        </mxCell>
      </root>
    </mxGraphModel>
  </diagram>
  <diagram id="2vi7HMHtGFhFYIN_dXik" name="Page-2">
    <mxGraphModel dx="1223" dy="744" grid="1" gridSize="10" guides="1" tooltips="1" connect="1" arrows="1" fold="1" page="1" pageScale="1" pageWidth="1100" pageHeight="850" math="0" shadow="0">
      <root>
        <mxCell id="0" />
        <mxCell id="1" parent="0" />
        <mxCell id="cRWe-vaD5gNC1HgEO4MR-2" value="&lt;strong&gt;&lt;span style=&quot;font-size:11.0pt;line-height:&lt;br/&gt;107%;font-family:&amp;quot;Calibri&amp;quot;,sans-serif;mso-ascii-theme-font:minor-latin;&lt;br/&gt;mso-fareast-font-family:Calibri;mso-fareast-theme-font:minor-latin;mso-hansi-theme-font:&lt;br/&gt;minor-latin;mso-bidi-font-family:Arial;mso-bidi-theme-font:minor-bidi;&lt;br/&gt;mso-ansi-language:EN-US;mso-fareast-language:EN-US;mso-bidi-language:AR-SA&quot;&gt;D1:&lt;br/&gt;User Data&lt;/span&gt;&lt;/strong&gt;" style="html=1;rounded=0;shadow=0;comic=0;labelBackgroundColor=none;strokeWidth=2;fontFamily=Verdana;fontSize=12;align=center;shape=mxgraph.ios7ui.horLines;" vertex="1" parent="1">
          <mxGeometry x="910" y="107" width="135" height="50" as="geometry" />
        </mxCell>
        <mxCell id="cRWe-vaD5gNC1HgEO4MR-4" style="edgeStyle=elbowEdgeStyle;rounded=1;orthogonalLoop=1;jettySize=auto;html=1;exitX=0.75;exitY=1;exitDx=0;exitDy=0;entryX=0;entryY=0.25;entryDx=0;entryDy=0;curved=0;" edge="1" parent="1" source="cRWe-vaD5gNC1HgEO4MR-7">
          <mxGeometry relative="1" as="geometry">
            <Array as="points">
              <mxPoint x="160" y="130" />
            </Array>
            <mxPoint x="260" y="142.5" as="targetPoint" />
          </mxGeometry>
        </mxCell>
        <mxCell id="cRWe-vaD5gNC1HgEO4MR-6" style="edgeStyle=elbowEdgeStyle;shape=connector;rounded=1;orthogonalLoop=1;jettySize=auto;html=1;strokeColor=default;align=center;verticalAlign=middle;fontFamily=Helvetica;fontSize=11;fontColor=default;labelBackgroundColor=default;endArrow=classic;" edge="1" parent="1" source="cRWe-vaD5gNC1HgEO4MR-63" target="cRWe-vaD5gNC1HgEO4MR-24">
          <mxGeometry relative="1" as="geometry" />
        </mxCell>
        <mxCell id="cRWe-vaD5gNC1HgEO4MR-54" style="edgeStyle=elbowEdgeStyle;shape=connector;rounded=1;orthogonalLoop=1;jettySize=auto;html=1;entryX=0;entryY=0.25;entryDx=0;entryDy=0;strokeColor=default;align=center;verticalAlign=middle;fontFamily=Helvetica;fontSize=11;fontColor=default;labelBackgroundColor=default;endArrow=classic;" edge="1" parent="1" source="cRWe-vaD5gNC1HgEO4MR-7" target="cRWe-vaD5gNC1HgEO4MR-11">
          <mxGeometry relative="1" as="geometry" />
        </mxCell>
        <mxCell id="cRWe-vaD5gNC1HgEO4MR-72" style="edgeStyle=elbowEdgeStyle;shape=connector;rounded=1;orthogonalLoop=1;jettySize=auto;html=1;strokeColor=default;align=center;verticalAlign=middle;fontFamily=Helvetica;fontSize=11;fontColor=default;labelBackgroundColor=default;endArrow=classic;" edge="1" parent="1" source="cRWe-vaD5gNC1HgEO4MR-7" target="cRWe-vaD5gNC1HgEO4MR-17">
          <mxGeometry relative="1" as="geometry">
            <Array as="points">
              <mxPoint x="140" y="190" />
            </Array>
          </mxGeometry>
        </mxCell>
        <mxCell id="cRWe-vaD5gNC1HgEO4MR-83" style="edgeStyle=elbowEdgeStyle;shape=connector;rounded=1;orthogonalLoop=1;jettySize=auto;html=1;exitX=0.5;exitY=1;exitDx=0;exitDy=0;entryX=0.25;entryY=0;entryDx=0;entryDy=0;strokeColor=default;align=center;verticalAlign=middle;fontFamily=Helvetica;fontSize=11;fontColor=default;labelBackgroundColor=default;endArrow=classic;" edge="1" parent="1" source="cRWe-vaD5gNC1HgEO4MR-7" target="cRWe-vaD5gNC1HgEO4MR-24">
          <mxGeometry relative="1" as="geometry" />
        </mxCell>
        <mxCell id="cRWe-vaD5gNC1HgEO4MR-7" value="&lt;strong&gt;&lt;span style=&quot;font-size:11.0pt;line-height:&lt;br/&gt;107%;font-family:&amp;quot;Calibri&amp;quot;,sans-serif;mso-ascii-theme-font:minor-latin;&lt;br/&gt;mso-fareast-font-family:Calibri;mso-fareast-theme-font:minor-latin;mso-hansi-theme-font:&lt;br/&gt;minor-latin;mso-bidi-font-family:Arial;mso-bidi-theme-font:minor-bidi;&lt;br/&gt;mso-ansi-language:EN-US;mso-fareast-language:EN-US;mso-bidi-language:AR-SA&quot;&gt;User&lt;/span&gt;&lt;/strong&gt;" style="whiteSpace=wrap;html=1;rounded=0;shadow=0;comic=0;labelBackgroundColor=none;strokeWidth=1;fontFamily=Verdana;fontSize=12;align=center;" vertex="1" parent="1">
          <mxGeometry x="60" y="55" width="120" height="50" as="geometry" />
        </mxCell>
        <mxCell id="cRWe-vaD5gNC1HgEO4MR-8" style="edgeStyle=elbowEdgeStyle;html=1;labelBackgroundColor=none;startFill=0;startSize=8;endFill=1;endSize=8;fontFamily=Verdana;fontSize=12;" edge="1" parent="1" source="cRWe-vaD5gNC1HgEO4MR-11" target="cRWe-vaD5gNC1HgEO4MR-16">
          <mxGeometry relative="1" as="geometry" />
        </mxCell>
        <mxCell id="cRWe-vaD5gNC1HgEO4MR-9" style="edgeStyle=orthogonalEdgeStyle;html=1;labelBackgroundColor=none;startFill=0;startSize=8;endFill=1;endSize=8;fontFamily=Verdana;fontSize=12;" edge="1" parent="1" source="cRWe-vaD5gNC1HgEO4MR-11" target="cRWe-vaD5gNC1HgEO4MR-2">
          <mxGeometry relative="1" as="geometry">
            <Array as="points">
              <mxPoint x="540" y="132" />
            </Array>
          </mxGeometry>
        </mxCell>
        <mxCell id="cRWe-vaD5gNC1HgEO4MR-10" style="edgeStyle=elbowEdgeStyle;rounded=1;orthogonalLoop=1;jettySize=auto;html=1;exitX=1;exitY=0.25;exitDx=0;exitDy=0;entryX=0.01;entryY=0.091;entryDx=0;entryDy=0;entryPerimeter=0;shadow=0;curved=0;" edge="1" parent="1" source="cRWe-vaD5gNC1HgEO4MR-11" target="cRWe-vaD5gNC1HgEO4MR-15">
          <mxGeometry relative="1" as="geometry">
            <mxPoint x="1040" y="75" as="targetPoint" />
            <Array as="points">
              <mxPoint x="880" y="75" />
            </Array>
          </mxGeometry>
        </mxCell>
        <mxCell id="cRWe-vaD5gNC1HgEO4MR-11" value="&lt;strong style=&quot;font-family: Helvetica; text-wrap-mode: wrap;&quot;&gt;&lt;span style=&quot;font-size: 11pt; line-height: 15.6933px; font-family: Calibri, sans-serif;&quot;&gt;P2.1&lt;/span&gt;&lt;/strong&gt;" style="swimlane;html=1;fontStyle=0;childLayout=stackLayout;horizontal=1;startSize=26;fillColor=#e0e0e0;horizontalStack=0;resizeParent=1;resizeLast=0;collapsible=1;marginBottom=0;swimlaneFillColor=#ffffff;align=center;rounded=1;shadow=0;comic=0;labelBackgroundColor=none;strokeWidth=1;fontFamily=Verdana;fontSize=12" vertex="1" parent="1">
          <mxGeometry x="430" y="54" width="140" height="80" as="geometry" />
        </mxCell>
        <mxCell id="cRWe-vaD5gNC1HgEO4MR-12" value="&lt;strong&gt;&lt;span style=&quot;font-size:11.0pt;line-height:&lt;br/&gt;107%;font-family:&amp;quot;Calibri&amp;quot;,sans-serif;mso-ascii-theme-font:minor-latin;&lt;br/&gt;mso-fareast-font-family:Calibri;mso-fareast-theme-font:minor-latin;mso-hansi-theme-font:&lt;br/&gt;minor-latin;mso-bidi-font-family:Arial;mso-bidi-theme-font:minor-bidi;&lt;br/&gt;mso-ansi-language:EN-US;mso-fareast-language:EN-US;mso-bidi-language:AR-SA&quot;&gt;:&lt;br/&gt;Chat Creation&lt;/span&gt;&lt;/strong&gt;" style="text;html=1;strokeColor=default;fillColor=none;spacingLeft=4;spacingRight=4;whiteSpace=wrap;overflow=hidden;rotatable=0;points=[[0,0.5],[1,0.5]];portConstraint=eastwest;align=center;" vertex="1" parent="cRWe-vaD5gNC1HgEO4MR-11">
          <mxGeometry y="26" width="140" height="54" as="geometry" />
        </mxCell>
        <mxCell id="cRWe-vaD5gNC1HgEO4MR-13" style="edgeStyle=elbowEdgeStyle;shape=connector;rounded=1;orthogonalLoop=1;jettySize=auto;html=1;strokeColor=default;align=center;verticalAlign=middle;fontFamily=Helvetica;fontSize=11;fontColor=default;labelBackgroundColor=default;endArrow=classic;exitX=0.02;exitY=0.434;exitDx=0;exitDy=0;exitPerimeter=0;" edge="1" parent="1">
          <mxGeometry relative="1" as="geometry">
            <mxPoint x="932.7000000000003" y="421.70000000000005" as="sourcePoint" />
            <mxPoint x="280" y="188" as="targetPoint" />
            <Array as="points">
              <mxPoint x="230" y="322.58" />
              <mxPoint x="790" y="491.58" />
              <mxPoint x="750" y="511.58" />
              <mxPoint x="120" y="441.58" />
            </Array>
          </mxGeometry>
        </mxCell>
        <mxCell id="cRWe-vaD5gNC1HgEO4MR-14" style="edgeStyle=elbowEdgeStyle;shape=connector;rounded=1;orthogonalLoop=1;jettySize=auto;html=1;strokeColor=default;align=center;verticalAlign=middle;fontFamily=Helvetica;fontSize=11;fontColor=default;labelBackgroundColor=default;endArrow=classic;" edge="1" parent="1" source="cRWe-vaD5gNC1HgEO4MR-15" target="cRWe-vaD5gNC1HgEO4MR-17">
          <mxGeometry relative="1" as="geometry">
            <mxPoint x="520" y="530" as="targetPoint" />
            <Array as="points">
              <mxPoint x="480" y="500" />
            </Array>
          </mxGeometry>
        </mxCell>
        <mxCell id="cRWe-vaD5gNC1HgEO4MR-15" value="&lt;strong&gt;&lt;span style=&quot;font-size:11.0pt;line-height:&lt;br/&gt;107%;font-family:&amp;quot;Calibri&amp;quot;,sans-serif;mso-ascii-theme-font:minor-latin;&lt;br/&gt;mso-fareast-font-family:Calibri;mso-fareast-theme-font:minor-latin;mso-hansi-theme-font:&lt;br/&gt;minor-latin;mso-bidi-font-family:Arial;mso-bidi-theme-font:minor-bidi;&lt;br/&gt;mso-ansi-language:EN-US;mso-fareast-language:EN-US;mso-bidi-language:AR-SA&quot;&gt;&lt;br&gt;&lt;/span&gt;&lt;/strong&gt;&lt;strong&gt;&lt;span style=&quot;font-size:11.0pt;line-height:&lt;br/&gt;107%;font-family:&amp;quot;Calibri&amp;quot;,sans-serif;mso-ascii-theme-font:minor-latin;&lt;br/&gt;mso-fareast-font-family:Calibri;mso-fareast-theme-font:minor-latin;mso-hansi-theme-font:&lt;br/&gt;minor-latin;mso-bidi-font-family:Arial;mso-bidi-theme-font:minor-bidi;&lt;br/&gt;mso-ansi-language:EN-US;mso-fareast-language:EN-US;mso-bidi-language:AR-SA&quot;&gt;D2:&lt;br/&gt;Chat Data:&lt;/span&gt;&lt;/strong&gt;&lt;span style=&quot;font-size:11.0pt;line-height:107%;&lt;br/&gt;font-family:&amp;quot;Calibri&amp;quot;,sans-serif;mso-ascii-theme-font:minor-latin;mso-fareast-font-family:&lt;br/&gt;Calibri;mso-fareast-theme-font:minor-latin;mso-hansi-theme-font:minor-latin;&lt;br/&gt;mso-bidi-font-family:Arial;mso-bidi-theme-font:minor-bidi;mso-ansi-language:&lt;br/&gt;EN-US;mso-fareast-language:EN-US;mso-bidi-language:AR-SA&quot;&gt;&lt;/span&gt;&lt;strong&gt;&lt;span style=&quot;font-size:11.0pt;line-height:&lt;br/&gt;107%;font-family:&amp;quot;Calibri&amp;quot;,sans-serif;mso-ascii-theme-font:minor-latin;&lt;br/&gt;mso-fareast-font-family:Calibri;mso-fareast-theme-font:minor-latin;mso-hansi-theme-font:&lt;br/&gt;minor-latin;mso-bidi-font-family:Arial;mso-bidi-theme-font:minor-bidi;&lt;br/&gt;mso-ansi-language:EN-US;mso-fareast-language:EN-US;mso-bidi-language:AR-SA&quot;&gt;&lt;/span&gt;&lt;/strong&gt;" style="html=1;rounded=0;shadow=0;comic=0;labelBackgroundColor=none;strokeWidth=2;fontFamily=Verdana;fontSize=12;align=center;shape=mxgraph.ios7ui.horLines;" vertex="1" parent="1">
          <mxGeometry x="910" y="380" width="135" height="50" as="geometry" />
        </mxCell>
        <mxCell id="cRWe-vaD5gNC1HgEO4MR-16" value="&lt;strong style=&quot;font-family: Helvetica; text-wrap-mode: wrap;&quot;&gt;&lt;span style=&quot;font-size: 11pt; line-height: 15.6933px; font-family: Calibri, sans-serif;&quot;&gt;P2.3:&lt;/span&gt;&lt;/strong&gt;&lt;strong style=&quot;font-family: Helvetica; text-wrap-mode: wrap;&quot;&gt;&lt;span style=&quot;font-size: 11pt; font-family: Calibri, sans-serif;&quot;&gt;&lt;/span&gt;&lt;/strong&gt;" style="swimlane;html=1;fontStyle=0;childLayout=stackLayout;horizontal=1;startSize=26;fillColor=#e0e0e0;horizontalStack=0;resizeParent=1;resizeLast=0;collapsible=1;marginBottom=0;swimlaneFillColor=#ffffff;align=center;rounded=1;shadow=0;comic=0;labelBackgroundColor=none;strokeWidth=1;fontFamily=Verdana;fontSize=12" vertex="1" parent="1">
          <mxGeometry x="440" y="200" width="130" height="90" as="geometry" />
        </mxCell>
        <mxCell id="cRWe-vaD5gNC1HgEO4MR-17" value="&lt;strong&gt;&lt;span style=&quot;font-size:11.0pt;line-height:&lt;br/&gt;107%;font-family:&amp;quot;Calibri&amp;quot;,sans-serif;mso-ascii-theme-font:minor-latin;&lt;br/&gt;mso-fareast-font-family:Calibri;mso-fareast-theme-font:minor-latin;mso-hansi-theme-font:&lt;br/&gt;minor-latin;mso-bidi-font-family:Arial;mso-bidi-theme-font:minor-bidi;&lt;br/&gt;mso-ansi-language:EN-US;mso-fareast-language:EN-US;mso-bidi-language:AR-SA&quot;&gt;&amp;nbsp;Chat Details Management:&lt;/span&gt;&lt;/strong&gt;&lt;span style=&quot;font-size:11.0pt;&lt;br/&gt;line-height:107%;font-family:&amp;quot;Calibri&amp;quot;,sans-serif;mso-ascii-theme-font:minor-latin;&lt;br/&gt;mso-fareast-font-family:Calibri;mso-fareast-theme-font:minor-latin;mso-hansi-theme-font:&lt;br/&gt;minor-latin;mso-bidi-font-family:Arial;mso-bidi-theme-font:minor-bidi;&lt;br/&gt;mso-ansi-language:EN-US;mso-fareast-language:EN-US;mso-bidi-language:AR-SA&quot;&gt;&lt;/span&gt;" style="text;html=1;strokeColor=none;fillColor=none;spacingLeft=4;spacingRight=4;whiteSpace=wrap;overflow=hidden;rotatable=0;points=[[0,0.5],[1,0.5]];portConstraint=eastwest;align=center;" vertex="1" parent="cRWe-vaD5gNC1HgEO4MR-16">
          <mxGeometry y="26" width="130" height="64" as="geometry" />
        </mxCell>
        <mxCell id="cRWe-vaD5gNC1HgEO4MR-22" style="edgeStyle=elbowEdgeStyle;shape=connector;rounded=1;orthogonalLoop=1;jettySize=auto;html=1;strokeColor=default;align=center;verticalAlign=middle;fontFamily=Helvetica;fontSize=11;fontColor=default;labelBackgroundColor=default;endArrow=classic;" edge="1" parent="1" source="cRWe-vaD5gNC1HgEO4MR-24">
          <mxGeometry relative="1" as="geometry">
            <mxPoint x="70" y="110" as="targetPoint" />
          </mxGeometry>
        </mxCell>
        <mxCell id="cRWe-vaD5gNC1HgEO4MR-23" style="edgeStyle=elbowEdgeStyle;shape=connector;rounded=1;orthogonalLoop=1;jettySize=auto;html=1;strokeColor=default;align=center;verticalAlign=middle;fontFamily=Helvetica;fontSize=11;fontColor=default;labelBackgroundColor=default;endArrow=classic;entryX=0.983;entryY=0.351;entryDx=0;entryDy=0;entryPerimeter=0;" edge="1" parent="1">
          <mxGeometry relative="1" as="geometry">
            <mxPoint x="1032.705" y="144.54999999999995" as="targetPoint" />
            <mxPoint x="200" y="520" as="sourcePoint" />
            <Array as="points">
              <mxPoint x="1050" y="570" />
            </Array>
          </mxGeometry>
        </mxCell>
        <mxCell id="cRWe-vaD5gNC1HgEO4MR-92" style="edgeStyle=elbowEdgeStyle;shape=connector;rounded=1;orthogonalLoop=1;jettySize=auto;html=1;strokeColor=default;align=center;verticalAlign=middle;fontFamily=Helvetica;fontSize=11;fontColor=default;labelBackgroundColor=default;endArrow=classic;entryX=0.417;entryY=0.1;entryDx=0;entryDy=0;entryPerimeter=0;" edge="1" parent="1" source="cRWe-vaD5gNC1HgEO4MR-24" target="cRWe-vaD5gNC1HgEO4MR-7">
          <mxGeometry relative="1" as="geometry">
            <mxPoint x="-30" y="110" as="targetPoint" />
            <Array as="points">
              <mxPoint x="10" y="300" />
            </Array>
          </mxGeometry>
        </mxCell>
        <mxCell id="cRWe-vaD5gNC1HgEO4MR-24" value="&lt;strong style=&quot;font-family: Helvetica; text-wrap-mode: wrap;&quot;&gt;&lt;span style=&quot;font-size: 11pt; line-height: 15.6933px; font-family: Calibri, sans-serif;&quot;&gt;P2.4:&lt;/span&gt;&lt;/strong&gt;" style="swimlane;html=1;fontStyle=0;childLayout=stackLayout;horizontal=1;startSize=26;fillColor=#e0e0e0;horizontalStack=0;resizeParent=1;resizeLast=0;collapsible=1;marginBottom=0;swimlaneFillColor=#ffffff;align=center;rounded=1;shadow=0;comic=0;labelBackgroundColor=none;strokeWidth=1;fontFamily=Verdana;fontSize=12" vertex="1" parent="1">
          <mxGeometry x="70" y="474" width="140" height="80" as="geometry" />
        </mxCell>
        <mxCell id="cRWe-vaD5gNC1HgEO4MR-25" value="&lt;strong&gt;&lt;span style=&quot;font-size:11.0pt;line-height:&lt;br/&gt;107%;font-family:&amp;quot;Calibri&amp;quot;,sans-serif;mso-ascii-theme-font:minor-latin;&lt;br/&gt;mso-fareast-font-family:Calibri;mso-fareast-theme-font:minor-latin;mso-hansi-theme-font:&lt;br/&gt;minor-latin;mso-bidi-font-family:Arial;mso-bidi-theme-font:minor-bidi;&lt;br/&gt;mso-ansi-language:EN-US;mso-fareast-language:EN-US;mso-bidi-language:AR-SA&quot;&gt;&amp;nbsp;Chat Joining &amp;amp; Leaving:&lt;/span&gt;&lt;/strong&gt;&lt;span style=&quot;font-size:11.0pt;&lt;br/&gt;line-height:107%;font-family:&amp;quot;Calibri&amp;quot;,sans-serif;mso-ascii-theme-font:minor-latin;&lt;br/&gt;mso-fareast-font-family:Calibri;mso-fareast-theme-font:minor-latin;mso-hansi-theme-font:&lt;br/&gt;minor-latin;mso-bidi-font-family:Arial;mso-bidi-theme-font:minor-bidi;&lt;br/&gt;mso-ansi-language:EN-US;mso-fareast-language:EN-US;mso-bidi-language:AR-SA&quot;&gt;&lt;/span&gt;" style="text;html=1;strokeColor=none;fillColor=none;spacingLeft=4;spacingRight=4;whiteSpace=wrap;overflow=hidden;rotatable=0;points=[[0,0.5],[1,0.5]];portConstraint=eastwest;align=center;" vertex="1" parent="cRWe-vaD5gNC1HgEO4MR-24">
          <mxGeometry y="26" width="140" height="54" as="geometry" />
        </mxCell>
        <mxCell id="cRWe-vaD5gNC1HgEO4MR-26" style="edgeStyle=elbowEdgeStyle;rounded=1;orthogonalLoop=1;jettySize=auto;html=1;entryX=1.009;entryY=0.772;entryDx=0;entryDy=0;entryPerimeter=0;curved=0;" edge="1" parent="1" source="cRWe-vaD5gNC1HgEO4MR-2" target="cRWe-vaD5gNC1HgEO4MR-12">
          <mxGeometry relative="1" as="geometry">
            <Array as="points">
              <mxPoint x="700" y="140" />
            </Array>
          </mxGeometry>
        </mxCell>
        <mxCell id="cRWe-vaD5gNC1HgEO4MR-29" style="edgeStyle=elbowEdgeStyle;shape=connector;rounded=1;orthogonalLoop=1;jettySize=auto;html=1;entryX=0.392;entryY=1.106;entryDx=0;entryDy=0;entryPerimeter=0;strokeColor=default;align=center;verticalAlign=middle;fontFamily=Helvetica;fontSize=11;fontColor=default;labelBackgroundColor=default;endArrow=classic;" edge="1" parent="1" target="cRWe-vaD5gNC1HgEO4MR-7">
          <mxGeometry relative="1" as="geometry">
            <Array as="points">
              <mxPoint x="107" y="140" />
            </Array>
            <mxPoint x="280" y="188" as="sourcePoint" />
          </mxGeometry>
        </mxCell>
        <mxCell id="cRWe-vaD5gNC1HgEO4MR-48" value="Block Confirmation" style="text;whiteSpace=wrap;html=1;fontFamily=Helvetica;fontSize=11;fontColor=default;labelBackgroundColor=default;rotation=-90;" vertex="1" parent="1">
          <mxGeometry x="30" y="320" width="130" height="40" as="geometry" />
        </mxCell>
        <mxCell id="cRWe-vaD5gNC1HgEO4MR-49" value="&lt;code&gt;&lt;span style=&quot;font-size:10.0pt;line-height:107%;&lt;br/&gt;mso-fareast-font-family:Calibri;mso-fareast-theme-font:minor-latin;mso-ansi-language:&lt;br/&gt;EN-US;mso-fareast-language:EN-US;mso-bidi-language:AR-SA&quot;&gt;Join/Leave Chat&lt;br/&gt;Request&lt;/span&gt;&lt;/code&gt;&lt;span style=&quot;font-size:11.0pt;line-height:107%;font-family:&lt;br/&gt;&amp;quot;Calibri&amp;quot;,sans-serif;mso-ascii-theme-font:minor-latin;mso-fareast-font-family:&lt;br/&gt;Calibri;mso-fareast-theme-font:minor-latin;mso-hansi-theme-font:minor-latin;&lt;br/&gt;mso-bidi-font-family:Arial;mso-bidi-theme-font:minor-bidi;mso-ansi-language:&lt;br/&gt;EN-US;mso-fareast-language:EN-US;mso-bidi-language:AR-SA&quot;&gt;&lt;/span&gt;" style="text;whiteSpace=wrap;html=1;fontFamily=Helvetica;fontSize=11;fontColor=default;labelBackgroundColor=default;rotation=-90;" vertex="1" parent="1">
          <mxGeometry x="75" y="340" width="130" height="40" as="geometry" />
        </mxCell>
        <mxCell id="cRWe-vaD5gNC1HgEO4MR-52" value="&lt;strong style=&quot;font-family: Helvetica; text-wrap-mode: wrap;&quot;&gt;&lt;span style=&quot;font-size: 11pt; line-height: 15.6933px; font-family: Calibri, sans-serif;&quot;&gt;P2.2&lt;/span&gt;&lt;/strong&gt;" style="swimlane;html=1;fontStyle=0;childLayout=stackLayout;horizontal=1;startSize=26;fillColor=#e0e0e0;horizontalStack=0;resizeParent=1;resizeLast=0;collapsible=1;marginBottom=0;swimlaneFillColor=#ffffff;align=center;rounded=1;shadow=0;comic=0;labelBackgroundColor=none;strokeWidth=1;fontFamily=Verdana;fontSize=12" vertex="1" parent="1">
          <mxGeometry x="270" y="100" width="140" height="80" as="geometry" />
        </mxCell>
        <mxCell id="cRWe-vaD5gNC1HgEO4MR-65" style="edgeStyle=elbowEdgeStyle;shape=connector;rounded=1;orthogonalLoop=1;jettySize=auto;html=1;strokeColor=default;align=center;verticalAlign=middle;fontFamily=Helvetica;fontSize=11;fontColor=default;labelBackgroundColor=default;endArrow=classic;" edge="1" parent="cRWe-vaD5gNC1HgEO4MR-52" source="cRWe-vaD5gNC1HgEO4MR-53">
          <mxGeometry relative="1" as="geometry">
            <mxPoint x="630" y="290" as="targetPoint" />
          </mxGeometry>
        </mxCell>
        <mxCell id="cRWe-vaD5gNC1HgEO4MR-68" style="edgeStyle=elbowEdgeStyle;shape=connector;rounded=1;orthogonalLoop=1;jettySize=auto;html=1;strokeColor=default;align=center;verticalAlign=middle;fontFamily=Helvetica;fontSize=11;fontColor=default;labelBackgroundColor=default;endArrow=classic;" edge="1" parent="cRWe-vaD5gNC1HgEO4MR-52" source="cRWe-vaD5gNC1HgEO4MR-53">
          <mxGeometry relative="1" as="geometry">
            <mxPoint x="640" y="310" as="targetPoint" />
          </mxGeometry>
        </mxCell>
        <mxCell id="cRWe-vaD5gNC1HgEO4MR-53" value="&lt;strong&gt;&lt;span style=&quot;font-size:11.0pt;line-height:&lt;br/&gt;107%;font-family:&amp;quot;Calibri&amp;quot;,sans-serif;mso-ascii-theme-font:minor-latin;&lt;br/&gt;mso-fareast-font-family:Calibri;mso-fareast-theme-font:minor-latin;mso-hansi-theme-font:&lt;br/&gt;minor-latin;mso-bidi-font-family:Arial;mso-bidi-theme-font:minor-bidi;&lt;br/&gt;mso-ansi-language:EN-US;mso-fareast-language:EN-US;mso-bidi-language:AR-SA&quot;&gt;:&lt;br/&gt;Participant Management&lt;/span&gt;&lt;/strong&gt;" style="text;html=1;strokeColor=default;fillColor=none;spacingLeft=4;spacingRight=4;whiteSpace=wrap;overflow=hidden;rotatable=0;points=[[0,0.5],[1,0.5]];portConstraint=eastwest;align=center;" vertex="1" parent="cRWe-vaD5gNC1HgEO4MR-52">
          <mxGeometry y="26" width="140" height="54" as="geometry" />
        </mxCell>
        <mxCell id="cRWe-vaD5gNC1HgEO4MR-55" value="Chat Creation Request" style="text;whiteSpace=wrap;html=1;fontFamily=Helvetica;fontSize=11;fontColor=default;labelBackgroundColor=default;" vertex="1" parent="1">
          <mxGeometry x="250" y="50" width="150" height="40" as="geometry" />
        </mxCell>
        <mxCell id="cRWe-vaD5gNC1HgEO4MR-56" value="Read User Info" style="text;whiteSpace=wrap;html=1;fontFamily=Helvetica;fontSize=11;fontColor=default;labelBackgroundColor=default;" vertex="1" parent="1">
          <mxGeometry x="690" y="80" width="110" height="40" as="geometry" />
        </mxCell>
        <mxCell id="cRWe-vaD5gNC1HgEO4MR-57" value="User Profile Details" style="text;whiteSpace=wrap;html=1;fontFamily=Helvetica;fontSize=11;fontColor=default;labelBackgroundColor=default;" vertex="1" parent="1">
          <mxGeometry x="710" y="140" width="130" height="40" as="geometry" />
        </mxCell>
        <mxCell id="cRWe-vaD5gNC1HgEO4MR-58" value="New Chat Record" style="text;whiteSpace=wrap;html=1;fontFamily=Helvetica;fontSize=11;fontColor=default;labelBackgroundColor=default;" vertex="1" parent="1">
          <mxGeometry x="640" y="40" width="120" height="40" as="geometry" />
        </mxCell>
        <mxCell id="cRWe-vaD5gNC1HgEO4MR-59" style="edgeStyle=elbowEdgeStyle;shape=connector;rounded=1;orthogonalLoop=1;jettySize=auto;html=1;entryX=1.009;entryY=0.27;entryDx=0;entryDy=0;entryPerimeter=0;strokeColor=default;align=center;verticalAlign=middle;fontFamily=Helvetica;fontSize=11;fontColor=default;labelBackgroundColor=default;endArrow=classic;" edge="1" parent="1" source="cRWe-vaD5gNC1HgEO4MR-15" target="cRWe-vaD5gNC1HgEO4MR-12">
          <mxGeometry relative="1" as="geometry" />
        </mxCell>
        <mxCell id="cRWe-vaD5gNC1HgEO4MR-60" value="Chat ID Confirmation" style="text;whiteSpace=wrap;html=1;fontFamily=Helvetica;fontSize=11;fontColor=default;labelBackgroundColor=default;rotation=-90;" vertex="1" parent="1">
          <mxGeometry x="690" y="280" width="140" height="40" as="geometry" />
        </mxCell>
        <mxCell id="cRWe-vaD5gNC1HgEO4MR-61" style="edgeStyle=elbowEdgeStyle;shape=connector;rounded=1;orthogonalLoop=1;jettySize=auto;html=1;exitX=0;exitY=0.5;exitDx=0;exitDy=0;entryX=1;entryY=0;entryDx=0;entryDy=0;strokeColor=default;align=center;verticalAlign=middle;fontFamily=Helvetica;fontSize=11;fontColor=default;labelBackgroundColor=default;endArrow=classic;" edge="1" parent="1" source="cRWe-vaD5gNC1HgEO4MR-12" target="cRWe-vaD5gNC1HgEO4MR-7">
          <mxGeometry relative="1" as="geometry">
            <Array as="points">
              <mxPoint x="400" y="40" />
            </Array>
          </mxGeometry>
        </mxCell>
        <mxCell id="cRWe-vaD5gNC1HgEO4MR-62" value="Chat Creation Confirmation" style="text;whiteSpace=wrap;html=1;fontFamily=Helvetica;fontSize=11;fontColor=default;labelBackgroundColor=default;" vertex="1" parent="1">
          <mxGeometry x="210" y="10" width="170" height="40" as="geometry" />
        </mxCell>
        <mxCell id="cRWe-vaD5gNC1HgEO4MR-64" value="" style="edgeStyle=elbowEdgeStyle;shape=connector;rounded=1;orthogonalLoop=1;jettySize=auto;html=1;strokeColor=default;align=center;verticalAlign=middle;fontFamily=Helvetica;fontSize=11;fontColor=default;labelBackgroundColor=default;endArrow=classic;" edge="1" parent="1" source="cRWe-vaD5gNC1HgEO4MR-7" target="cRWe-vaD5gNC1HgEO4MR-63">
          <mxGeometry relative="1" as="geometry">
            <mxPoint x="126" y="105" as="sourcePoint" />
            <mxPoint x="126" y="474" as="targetPoint" />
          </mxGeometry>
        </mxCell>
        <mxCell id="cRWe-vaD5gNC1HgEO4MR-63" value="Member Management Commands" style="text;whiteSpace=wrap;html=1;fontFamily=Helvetica;fontSize=11;fontColor=default;labelBackgroundColor=default;" vertex="1" parent="1">
          <mxGeometry x="160" y="107" width="150" height="40" as="geometry" />
        </mxCell>
        <mxCell id="cRWe-vaD5gNC1HgEO4MR-66" value="ead Chat &amp; Participant" style="text;whiteSpace=wrap;html=1;fontFamily=Helvetica;fontSize=11;fontColor=default;labelBackgroundColor=default;rotation=-90;" vertex="1" parent="1">
          <mxGeometry x="610" y="250" width="140" height="40" as="geometry" />
        </mxCell>
        <mxCell id="cRWe-vaD5gNC1HgEO4MR-67" value="Current Chat &amp; Participant Details" style="text;whiteSpace=wrap;html=1;fontFamily=Helvetica;fontSize=11;fontColor=default;labelBackgroundColor=default;" vertex="1" parent="1">
          <mxGeometry x="250" y="390" width="200" height="40" as="geometry" />
        </mxCell>
        <mxCell id="cRWe-vaD5gNC1HgEO4MR-69" value="Updated Participant Records" style="text;whiteSpace=wrap;html=1;fontFamily=Helvetica;fontSize=11;fontColor=default;labelBackgroundColor=default;rotation=-90;" vertex="1" parent="1">
          <mxGeometry x="570" y="250" width="170" height="40" as="geometry" />
        </mxCell>
        <mxCell id="cRWe-vaD5gNC1HgEO4MR-70" style="edgeStyle=elbowEdgeStyle;shape=connector;rounded=1;orthogonalLoop=1;jettySize=auto;html=1;strokeColor=default;align=center;verticalAlign=middle;fontFamily=Helvetica;fontSize=11;fontColor=default;labelBackgroundColor=default;endArrow=classic;" edge="1" parent="1" source="cRWe-vaD5gNC1HgEO4MR-53" target="cRWe-vaD5gNC1HgEO4MR-7">
          <mxGeometry relative="1" as="geometry">
            <Array as="points">
              <mxPoint x="20" y="130" />
            </Array>
          </mxGeometry>
        </mxCell>
        <mxCell id="cRWe-vaD5gNC1HgEO4MR-71" value="Participant Status Updates" style="text;whiteSpace=wrap;html=1;fontFamily=Helvetica;fontSize=11;fontColor=default;labelBackgroundColor=default;" vertex="1" parent="1">
          <mxGeometry x="10" y="134" width="30" height="40" as="geometry" />
        </mxCell>
        <mxCell id="cRWe-vaD5gNC1HgEO4MR-73" value=": Chat Details Update" style="text;whiteSpace=wrap;html=1;fontFamily=Helvetica;fontSize=11;fontColor=default;labelBackgroundColor=default;" vertex="1" parent="1">
          <mxGeometry x="260" y="225" width="140" height="40" as="geometry" />
        </mxCell>
        <mxCell id="cRWe-vaD5gNC1HgEO4MR-74" style="edgeStyle=elbowEdgeStyle;shape=connector;rounded=1;orthogonalLoop=1;jettySize=auto;html=1;strokeColor=default;align=center;verticalAlign=middle;fontFamily=Helvetica;fontSize=11;fontColor=default;labelBackgroundColor=default;endArrow=classic;entryX=0;entryY=1;entryDx=0;entryDy=0;entryPerimeter=0;" edge="1" parent="1" source="cRWe-vaD5gNC1HgEO4MR-17" target="cRWe-vaD5gNC1HgEO4MR-15">
          <mxGeometry relative="1" as="geometry">
            <mxPoint x="600" y="490" as="targetPoint" />
            <Array as="points">
              <mxPoint x="540" y="370" />
            </Array>
          </mxGeometry>
        </mxCell>
        <mxCell id="cRWe-vaD5gNC1HgEO4MR-75" value="Read Chat Details" style="text;whiteSpace=wrap;html=1;fontFamily=Helvetica;fontSize=11;fontColor=default;labelBackgroundColor=default;rotation=-90;" vertex="1" parent="1">
          <mxGeometry x="500" y="320" width="120" height="40" as="geometry" />
        </mxCell>
        <mxCell id="cRWe-vaD5gNC1HgEO4MR-76" style="edgeStyle=elbowEdgeStyle;shape=connector;rounded=1;orthogonalLoop=1;jettySize=auto;html=1;entryX=1.021;entryY=0.313;entryDx=0;entryDy=0;entryPerimeter=0;strokeColor=default;align=center;verticalAlign=middle;fontFamily=Helvetica;fontSize=11;fontColor=default;labelBackgroundColor=default;endArrow=classic;" edge="1" parent="1" source="cRWe-vaD5gNC1HgEO4MR-15" target="cRWe-vaD5gNC1HgEO4MR-17">
          <mxGeometry relative="1" as="geometry">
            <Array as="points">
              <mxPoint x="600" y="330" />
            </Array>
          </mxGeometry>
        </mxCell>
        <mxCell id="cRWe-vaD5gNC1HgEO4MR-77" value="Current Chat Details" style="text;whiteSpace=wrap;html=1;fontFamily=Helvetica;fontSize=11;fontColor=default;labelBackgroundColor=default;rotation=-90;" vertex="1" parent="1">
          <mxGeometry x="560" y="300" width="130" height="40" as="geometry" />
        </mxCell>
        <mxCell id="cRWe-vaD5gNC1HgEO4MR-78" style="edgeStyle=elbowEdgeStyle;shape=connector;rounded=1;orthogonalLoop=1;jettySize=auto;html=1;entryX=0.168;entryY=1.091;entryDx=0;entryDy=0;entryPerimeter=0;strokeColor=default;align=center;verticalAlign=middle;fontFamily=Helvetica;fontSize=11;fontColor=default;labelBackgroundColor=default;endArrow=classic;" edge="1" parent="1" source="cRWe-vaD5gNC1HgEO4MR-17" target="cRWe-vaD5gNC1HgEO4MR-15">
          <mxGeometry relative="1" as="geometry">
            <Array as="points">
              <mxPoint x="510" y="460" />
            </Array>
          </mxGeometry>
        </mxCell>
        <mxCell id="cRWe-vaD5gNC1HgEO4MR-79" value="Updated Chat Record" style="text;whiteSpace=wrap;html=1;fontFamily=Helvetica;fontSize=11;fontColor=default;labelBackgroundColor=default;" vertex="1" parent="1">
          <mxGeometry x="570" y="450" width="140" height="40" as="geometry" />
        </mxCell>
        <mxCell id="cRWe-vaD5gNC1HgEO4MR-80" style="edgeStyle=elbowEdgeStyle;shape=connector;rounded=1;orthogonalLoop=1;jettySize=auto;html=1;entryX=0.5;entryY=1;entryDx=0;entryDy=0;strokeColor=default;align=center;verticalAlign=middle;fontFamily=Helvetica;fontSize=11;fontColor=default;labelBackgroundColor=default;endArrow=classic;" edge="1" parent="1" source="cRWe-vaD5gNC1HgEO4MR-73" target="cRWe-vaD5gNC1HgEO4MR-73">
          <mxGeometry relative="1" as="geometry" />
        </mxCell>
        <mxCell id="cRWe-vaD5gNC1HgEO4MR-81" style="edgeStyle=elbowEdgeStyle;shape=connector;rounded=1;orthogonalLoop=1;jettySize=auto;html=1;strokeColor=default;align=center;verticalAlign=middle;fontFamily=Helvetica;fontSize=11;fontColor=default;labelBackgroundColor=default;endArrow=classic;" edge="1" parent="1" source="cRWe-vaD5gNC1HgEO4MR-17" target="cRWe-vaD5gNC1HgEO4MR-7">
          <mxGeometry relative="1" as="geometry">
            <Array as="points">
              <mxPoint x="30" y="290" />
            </Array>
          </mxGeometry>
        </mxCell>
        <mxCell id="cRWe-vaD5gNC1HgEO4MR-82" value="Chat Details Confirmation." style="text;whiteSpace=wrap;html=1;fontFamily=Helvetica;fontSize=11;fontColor=default;labelBackgroundColor=default;" vertex="1" parent="1">
          <mxGeometry x="240" y="265" width="160" height="40" as="geometry" />
        </mxCell>
        <mxCell id="cRWe-vaD5gNC1HgEO4MR-84" style="edgeStyle=elbowEdgeStyle;shape=connector;rounded=1;orthogonalLoop=1;jettySize=auto;html=1;entryX=0.793;entryY=1.063;entryDx=0;entryDy=0;entryPerimeter=0;strokeColor=default;align=center;verticalAlign=middle;fontFamily=Helvetica;fontSize=11;fontColor=default;labelBackgroundColor=default;endArrow=classic;" edge="1" parent="1" source="cRWe-vaD5gNC1HgEO4MR-25" target="cRWe-vaD5gNC1HgEO4MR-15">
          <mxGeometry relative="1" as="geometry">
            <Array as="points">
              <mxPoint x="1030" y="590" />
            </Array>
          </mxGeometry>
        </mxCell>
        <mxCell id="cRWe-vaD5gNC1HgEO4MR-85" value="Read Chat Info" style="text;whiteSpace=wrap;html=1;fontFamily=Helvetica;fontSize=11;fontColor=default;labelBackgroundColor=default;" vertex="1" parent="1">
          <mxGeometry x="650" y="554" width="110" height="40" as="geometry" />
        </mxCell>
        <mxCell id="cRWe-vaD5gNC1HgEO4MR-86" style="edgeStyle=elbowEdgeStyle;shape=connector;rounded=1;orthogonalLoop=1;jettySize=auto;html=1;entryX=0.979;entryY=0.878;entryDx=0;entryDy=0;entryPerimeter=0;strokeColor=default;align=center;verticalAlign=middle;fontFamily=Helvetica;fontSize=11;fontColor=default;labelBackgroundColor=default;endArrow=classic;" edge="1" parent="1">
          <mxGeometry relative="1" as="geometry">
            <mxPoint x="907.94" y="398.79" as="sourcePoint" />
            <mxPoint x="204.99999999999994" y="541.202" as="targetPoint" />
          </mxGeometry>
        </mxCell>
        <mxCell id="cRWe-vaD5gNC1HgEO4MR-87" value="Chat Type &amp; Participant List." style="text;whiteSpace=wrap;html=1;fontFamily=Helvetica;fontSize=11;fontColor=default;labelBackgroundColor=default;" vertex="1" parent="1">
          <mxGeometry x="265" y="540" width="170" height="40" as="geometry" />
        </mxCell>
        <mxCell id="cRWe-vaD5gNC1HgEO4MR-89" style="edgeStyle=elbowEdgeStyle;shape=connector;rounded=1;orthogonalLoop=1;jettySize=auto;html=1;entryX=0.549;entryY=1.12;entryDx=0;entryDy=0;entryPerimeter=0;strokeColor=default;align=center;verticalAlign=middle;fontFamily=Helvetica;fontSize=11;fontColor=default;labelBackgroundColor=default;endArrow=classic;" edge="1" parent="1" source="cRWe-vaD5gNC1HgEO4MR-25" target="cRWe-vaD5gNC1HgEO4MR-15">
          <mxGeometry relative="1" as="geometry">
            <Array as="points">
              <mxPoint x="950" y="630" />
            </Array>
          </mxGeometry>
        </mxCell>
        <mxCell id="cRWe-vaD5gNC1HgEO4MR-90" value="Updated Participant" style="text;whiteSpace=wrap;html=1;fontFamily=Helvetica;fontSize=11;fontColor=default;labelBackgroundColor=default;" vertex="1" parent="1">
          <mxGeometry x="450" y="610" width="130" height="40" as="geometry" />
        </mxCell>
        <mxCell id="cRWe-vaD5gNC1HgEO4MR-93" value="Join/Leave Confirmation." style="text;whiteSpace=wrap;html=1;fontFamily=Helvetica;fontSize=11;fontColor=default;labelBackgroundColor=default;rotation=-90;" vertex="1" parent="1">
          <mxGeometry x="-30" y="360" width="160" height="40" as="geometry" />
        </mxCell>
      </root>
    </mxGraphModel>
  </diagram>
</mxfile>
